<?xml version="1.0" encoding="utf-8"?>
<!-- Generator: Adobe Illustrator 28.2.0, SVG Export Plug-In . SVG Version: 6.00 Build 0)  -->
<svg version="1.1" id="Capa_1" xmlns="http://www.w3.org/2000/svg" xmlns:xlink="http://www.w3.org/1999/xlink" x="0px" y="0px"
	 viewBox="0 0 321.88 313.41" style="enable-background:new 0 0 321.88 313.41;" xml:space="preserve">
<style type="text/css">
	.st0{fill:#E1C4DC;stroke:#000000;stroke-width:10;stroke-miterlimit:10;}
</style>
<g>
	<path class="st0" d="M249.82,259.78c-10.64,64.6-43.45-32.24-89.4-32.24s-71.2,108.95-84.74,22.23
		c-7.9-50.59,46.99-104.02,88.04-105.62C209.18,142.4,258.81,205.17,249.82,259.78z"/>
	<path class="st0" d="M36.43,112.91c8.31-3.8,17.71,0.49,20.87,1.93c24.41,11.15,37,51.75,19.46,68.58
		c-9.97,9.57-29.05,10.85-41.17,3.68C10.41,172.22,16.93,121.84,36.43,112.91z"/>
	<path class="st0" d="M112.27,44.57c8.96-1.81,17.13,4.52,19.88,6.64c21.22,16.43,24.21,58.83,3.3,71.21
		c-11.89,7.04-30.76,3.93-40.92-5.81C73.4,96.38,91.24,48.81,112.27,44.57z"/>
	<path class="st0" d="M269.53,110.39c-9.11-0.67-16.43,6.64-18.88,9.09c-18.98,18.97-16.61,61.41,5.7,71.06
		c12.68,5.49,31.01,0.03,39.87-10.92C314.61,156.89,290.92,111.96,269.53,110.39z"/>
	<path class="st0" d="M192.87,36.66c-9.13-0.31-16.16,7.28-18.51,9.82c-18.23,19.69-14.21,62.01,8.46,70.78
		c12.89,4.99,30.99-1.18,39.41-12.46C239.73,81.37,214.3,37.39,192.87,36.66z"/>
</g>
</svg>
